<?xml version="1.0" encoding="UTF-8"?>
<!-- Created with Inkscape (http://www.inkscape.org/) -->
<svg width="95mm" height="80mm" version="1.1" viewBox="0 0 95 80" xmlns="http://www.w3.org/2000/svg" xmlns:cc="http://creativecommons.org/ns#" xmlns:dc="http://purl.org/dc/elements/1.1/" xmlns:rdf="http://www.w3.org/1999/02/22-rdf-syntax-ns#" xmlns:xlink="http://www.w3.org/1999/xlink">
 <defs>
  <linearGradient id="linearGradient3">
   <stop stop-color="#ff7a7a" offset="0"/>
   <stop stop-color="#ffba60" offset="1"/>
  </linearGradient>
  <linearGradient id="linearGradient4712" x1="-100.32" x2="-74.908" y1="-45.014" y2="27.468" gradientUnits="userSpaceOnUse" xlink:href="#linearGradient3"/>
  <linearGradient id="linearGradient4" x1="-100.32" x2="-74.908" y1="-45.014" y2="27.468" gradientTransform="matrix(-1 0 0 1 -241.7 0)" gradientUnits="userSpaceOnUse" xlink:href="#linearGradient3"/>
 </defs>
 <metadata>
  <rdf:RDF>
   <cc:Work rdf:about="">
    <dc:format>image/svg+xml</dc:format>
    <dc:type rdf:resource="http://purl.org/dc/dcmitype/StillImage"/>
   </cc:Work>
  </rdf:RDF>
 </metadata>
 <g transform="translate(-49.507 -37.879)">
  <g transform="translate(217.9 82.893)">
   <g>
    <path d="m-118.96 31.644c4.0112-0.0024 5.2988-0.26612 8.556-1.7532 6.1565-2.8107 12.803-9.976 15.04-16.215 1.0446-2.9129 1.4143-8.2158 0.77586-11.126-0.45518-2.0751-0.83458-2.9313-2.8279-6.3819-0.91453-1.5832-2.2452-4.3072-2.9571-6.0535-1.6499-4.0474-1.645-4.0299-1.2554-4.4993 0.96367-1.1611 4.1916 0.37199 7.5394 3.5809 2.8875 2.7677 3.4557 3.1673 4.5031 3.1673 0.59406 0 1.0797-0.27266 1.8006-1.0109 1.7824-1.8253 2.4223-4.6751 1.7737-7.8986-0.14132-0.70233-0.45207-2.7057-0.69054-4.452-0.59328-4.3443-0.95703-5.8193-2.3815-9.6573-1.6855-4.5411-2.0352-5.92-2.0466-8.0698-0.0111-2.0925 0.84391-4.3656 1.6421-4.3656 0.87812 0 5.1378 4.8044 7.5067 8.4667 4.4867 6.9362 7.0747 15.391 7.0747 23.111 0 8.1017-2.8219 17.432-7.2938 24.117-5.4754 8.185-15.165 15.468-24.589 18.481-1.1075 0.99122-3.7474 1.2055-6.6445 1.6519-7.4308 1.145-16.734-1.1009-5.5263-1.0926zm25.88-48.078c-2.6608-3.2399-4.5952-6.8723-4.9966-9.3825-0.2035-1.2726 0.29466-3.2514 0.81855-3.2514 0.63703 0 2.706 2.8815 4.0845 5.6885 1.2182 2.4806 2.0777 5.1258 2.5146 7.7391 0.29815 1.7834-0.52659 1.513-2.421-0.79375zm4.3204 0.33073c-0.23219-0.50932-0.94681-2.3548-1.588-4.101-1.3036-3.5501-3.3065-8.0903-4.9199-11.153-1.3826-2.6243-1.4397-3.8869-0.23757-5.256 0.62276-0.70928 1.0071-0.92883 1.5214-0.8691 0.5711 0.06632 0.85535 0.42854 1.6717 2.1303 1.2608 2.6282 2.6864 6.8216 3.3506 9.8559 0.64773 2.9588 1.1683 8.8738 0.85426 9.7074-0.22368 0.59384-0.24235 0.58483-0.65242-0.31471z" fill="url(#linearGradient4712)"/>
    <g transform="translate(-178.13 -35.814)">
     <path transform="scale(.26458)" d="m265.55 59.986c-2.2298 0.06488-4.4361 0.6762-5.8418 1.8145-2.2324 1.8077-2.2727 2.1124-1.1914 8.75 0.61618 3.7824 1.4245 8.0647 1.7969 9.5156 0.63185 2.4621 0.33805 2.7504-4.4062 4.3262-2.7959 0.92864-5.3779 2.1642-5.7363 2.7441-1.1566 1.8714-7.4788 27.216-7.3691 29.541 0.45564 9.6624 0.39998 13.49-0.26367 18.521-0.74029 5.6124-0.68894 5.7979 1.877 6.7734 2.3883 0.90802 2.5773 1.357 1.9961 4.7305-2.2437 13.024-2.8585 18.139-2.3438 19.48 0.32137 0.83748 2.8674 2.107 5.6582 2.8223l5.0742 1.3008v4.375c0 2.406 1.1371 9.858 2.5274 16.561 2.259 10.891 2.4115 12.955 1.4336 19.424-0.60182 3.9808-0.84974 7.6335-0.55078 8.1172 0.68222 1.1039 11.63 0.93156 13.408-0.21093 0.73634-0.47303 1.0307-1.5731 0.66797-2.4942-2.2464-5.7051-2.3904-13.048-0.47656-24.164 1.0875-6.3168 1.9783-13.789 1.9824-16.605l8e-3 -5.1191 4.541-1.2715c2.4972-0.69918 4.9558-2.0509 5.4648-3.002 0.60706-1.1343 0.25199-5.6429-1.0332-13.107-2.8068-16.302-2.6639-17.994 2.377-27.936 4.295-8.4706 4.3248-8.5989 2.9668-13-0.75434-2.4448-2.2279-8.2703-3.2754-12.945-1.0475-4.675-2.795-10.975-3.8828-14-1.0878-3.025-2.2546-7.1412-2.5938-9.1484-0.33918-2.0072-1.2334-4.1603-1.9863-4.7852-0.75291-0.62486-1.6592-2.6827-2.0137-4.5723-0.3545-1.8896-1.6258-4.124-2.8262-4.9648-1.5042-1.0536-3.7585-1.5356-5.9883-1.4707zm13.645 47.24c1.1667 0.38891 3.607 14.438 2.8574 16.451-0.7854 2.1087-3.2478 1.3893-4.2774-1.25-0.53639-1.375-1.4504-3.719-2.0312-5.2109-0.82579-2.1211-0.67954-3.5454 0.66602-6.5293 0.94641-2.0988 2.1996-3.6562 2.7852-3.4609zm-25.463 2.7012c2.2658 0 1.7446 3.9913-1.6445 12.584-2.0429 5.1794-4.1296 9.416-4.6367 9.416-1.3058 0 0.0664-8.9202 1.7734-11.525 0.77674-1.1854 1.9172-4.0267 2.5332-6.3144s1.5046-4.1602 1.9746-4.1602zm10.898 59.986c0.66629 0.0876 1.1699 1.1631 1.1699 2.9551 0 1.6175-0.40124 3.1905-0.89257 3.4941-1.0601 0.65521-2.43-4.1021-1.5781-5.4805 0.44394-0.7183 0.90101-1.0213 1.3008-0.96875zm0.0547 17.477c0.0376 4.3e-4 0.0755 0.0126 0.11523 0.0371 0.55001 0.33993 1 3.968 1 8.0606 0 4.294-0.42293 7.4394-1 7.4394-0.58394 0-1-3.3526-1-8.0586 0-4.7982 0.3214-7.4848 0.88477-7.4785z" fill="#5b9446"/>
     <path transform="matrix(.26458 0 0 .26458 -13.125 -26.552)" d="m221.15 160.55c-3.2847 0.0447-6.4891 1.844-8.3086 5.2226-1.622 3.012-1.6657 3.7741-0.41797 7.5547 1.3503 4.0915 1.3164 4.2684-1.2734 6.4961-1.464 1.2593-5.1312 3.0071-8.1504 3.8848-3.0192 0.87771-5.8505 2.1518-6.291 2.832-0.4405 0.68027-1.3134 4.1613-1.9394 7.7363-0.62601 3.575-1.9091 10.55-2.8516 15.5-1.2634 6.6388-1.5935 12.26-1.2578 21.426 0.44156 12.058 0.53652 12.495 3.2012 14.787l2.7461 2.3633-1.1133 30.213c-0.61163 16.617-1.3754 32.798-1.6973 35.961-0.48482 4.763-0.32185 5.75 0.95312 5.75 0.84654 0 1.7471-0.33749 2-0.75 0.25288-0.41249 1.0188-16.725 1.7012-36.25 0.68232-19.525 1.6254-35.927 2.0977-36.449 0.30259-0.33479 0.5812-0.51024 0.84375-0.5-0.31149-5.2532-1.3075-23.484-0.86914-24.771h0.0254c-0.14799-1.6205 0.10235-4.0398 0.75781-5.7129 0.36975-0.9442 0.73308-1.3137 1.0352-1.252 0.66456 0.13572 1.0305 2.3629 0.5039 5.1699-0.15589 0.83099-0.37703 1.5647-0.61328 2.168 0.49151 4.3185-0.82707 3.6732-0.14844 17.344 0.1134 3.6942 0.118 6.1153 0.0723 7.7578 1.1596 2.1831 2.1157 9.9036 3.7422 27.82 2.9278 32.251 3.4254 36.257 4.5996 36.982 0.49727 0.30732 0.23059 1.8571-0.59375 3.4512-1.8242 3.5277-1.907 5.6599-0.2461 6.3301 2.3078 0.93121 4.6846 0.67311 8.7441-0.95117 2.2186-0.88768 5.2349-1.3846 6.7051-1.1035 5.6659 1.0831 7.1349-2.2115 2.8008-6.2832-1.375-1.2918-2.5-3.0708-2.5-3.9551s1.831-8.5688 4.0684-17.076c3.5282-13.416 4.1423-17.359 4.6367-29.719 0.37523-9.3802 0.95654-14.156 1.5898-14.432-0.14039-0.42697-0.28928-1.0662-0.44726-1.9394l-2.4766-32.984c0.84156-2.5036 0.0259-4.5519 1.2051 0.53906 0.48022 17.364 0.98143 23.642 2.7109 32.547-0.15375 1.464-0.33386 2.272-0.53906 2.4297 0.59154 1.6808 1.198 7.04 1.7012 16.09 0.30581 5.5 1.0135 16.3 1.5723 24 0.55875 7.7 1.0445 17.689 1.0781 22.195 0.0626 8.4071 1.4314 11.781 3.6816 9.0684 0.73255-0.8829 0.65826-4.57-0.25-12.264-0.71422-6.05-1.8645-21.929-2.5547-35.287-1.2544-24.278-1.2526-24.289 0.88671-26.566 2.0013-2.1304 2.1086-3.0508 1.6738-14.211-0.38926-9.9909-3.8708-33.069-6.3867-42.332-0.68298-2.5148-1.8999-3.4841-6.3438-5.0566-2.5331-0.89639-2.6281-1.15-1.5976-4.25 1.8668-5.6163 1.2394-13.691-1.2715-16.363-2.0374-2.1687-4.6406-3.1949-7.1953-3.1602zm-2.9023 92.484s2.3026-0.32555 2.7773 3.7891c0.75761 6.566-1.0105 12.375-1.5156 22.477-0.50507 10.102-0.50548 13.636-1.5156 6.3125-1.0101-7.3236-0.25117-11.616 0.25391-29.041z" fill="#004ebf"/>
     <path d="m56.418 57.462c-0.09507-0.34924-0.26416-4.4003-0.34509-8.2682-0.10014-4.7852-0.28535-6.3387-0.72346-6.068-0.13 0.08034-0.23636 0.67483-0.23636 1.3211 0 0.86806-0.10368 1.175-0.39688 1.175-0.21828 0-0.40331-0.14883-0.41118-0.33073-0.0079-0.1819-0.07448-1.0873-0.14804-2.012-0.07912-0.99475 0.05202-2.8131 0.32117-4.4533 0.43877-2.6737 0.49036-2.8005 1.4546-3.5754 1.3047-1.0484 1.3737-1.2991 0.65066-2.3633-1.5154-2.2304-0.94369-3.5741 1.424-3.3466 0.72681 0.06984 1.504 0.27847 1.7271 0.46364 0.55613 0.46155 0.56273 3.2517 0.0088 3.7115-0.57619 0.4782-0.49292 0.7085 0.36419 1.0073 0.41858 0.14592 1.147 0.74552 1.6186 1.3324 1.0958 1.3635 1.433 1.478 2.2388 0.75946 1.4151 1.0135 0.28536 1.6467-2.2129 2.0483-0.63106-0.20206-0.63554-0.19071-0.47154 1.194 0.09107 0.76891 0.06126 1.5929-0.06624 1.8312-0.1275 0.23823-0.29322 3.4677-0.36827 7.1766-0.1317 6.5086-0.11776 6.7635 0.40034 7.3192 0.91584 0.98226-0.01045 1.5114-1.4765 0.84344-0.40393-0.18404-0.69093-0.56091-0.74005-0.97178-0.13022-1.0892-0.6847-0.98018-1.0017 0.19697-0.23907 0.88783-0.4032 1.0754-0.94085 1.0754-0.35819 0-0.65937-0.02977-0.66927-0.06615z" fill="#ff9e6c"/>
    </g>
    <path d="m-122.73 31.644c-4.0112-0.0024-5.2988-0.26612-8.556-1.7532-6.1565-2.8107-12.803-9.976-15.04-16.215-1.0446-2.9129-1.4143-8.2158-0.77586-11.126 0.45518-2.0751 0.83458-2.9313 2.8279-6.3819 0.91453-1.5832 2.2452-4.3072 2.9571-6.0535 1.6499-4.0474 1.645-4.0299 1.2554-4.4993-0.96367-1.1611-4.1916 0.37199-7.5394 3.5809-2.8875 2.7677-3.4557 3.1673-4.5031 3.1673-0.59406 0-1.0797-0.27266-1.8006-1.0109-1.7824-1.8253-2.4223-4.6751-1.7737-7.8986 0.14132-0.70233 0.45207-2.7057 0.69054-4.452 0.59328-4.3443 0.95703-5.8193 2.3815-9.6573 1.6855-4.5411 2.0352-5.92 2.0466-8.0698 0.0111-2.0925-0.84391-4.3656-1.6421-4.3656-0.87812 0-5.1378 4.8044-7.5067 8.4667-4.4867 6.9362-7.0747 15.391-7.0747 23.111 0 8.1017 2.8219 17.432 7.2938 24.117 5.4754 8.185 15.165 15.468 24.589 18.481 1.1075 0.99122 3.7474 1.2055 6.6445 1.6519 7.4308 1.145 16.734-1.1009 5.5263-1.0926zm-25.88-48.078c2.6608-3.2399 4.5952-6.8723 4.9966-9.3825 0.2035-1.2726-0.29466-3.2514-0.81855-3.2514-0.63703 0-2.706 2.8815-4.0845 5.6885-1.2182 2.4806-2.0777 5.1258-2.5146 7.7391-0.29815 1.7834 0.52659 1.513 2.421-0.79375zm-4.3204 0.33073c0.23219-0.50932 0.94681-2.3548 1.588-4.101 1.3036-3.5501 3.3065-8.0903 4.9199-11.153 1.3826-2.6243 1.4397-3.8869 0.23757-5.256-0.62276-0.70928-1.0071-0.92883-1.5214-0.8691-0.5711 0.06632-0.85535 0.42854-1.6717 2.1303-1.2608 2.6282-2.6864 6.8216-3.3506 9.8559-0.64773 2.9588-1.1683 8.8738-0.85426 9.7074 0.22368 0.59384 0.24235 0.58483 0.65242-0.31471z" fill="url(#linearGradient4)"/>
   </g>
  </g>
 </g>
</svg>
